#define noname_width 32
#define noname_height 32
static char noname_bits[] = {
 0x00,0x38,0x00,0x00,0x00,0x6c,0x00,0x00,0x00,0x4c,0x00,0x00,0x00,0x4c,0x00,
 0x00,0x00,0x4c,0x00,0x00,0x00,0x4c,0x00,0x00,0x00,0x4c,0x00,0x00,0x00,0x58,
 0x00,0x00,0x00,0x74,0x04,0x00,0x00,0x70,0x00,0x00,0x80,0x70,0x20,0x00,0x00,
 0xf8,0x00,0x00,0x00,0xd8,0x00,0x00,0x20,0x98,0x81,0x00,0x00,0x0c,0x03,0x00,
 0x00,0x0c,0x0e,0x00,0x00,0x0c,0x1c,0x00,0x10,0x06,0xf8,0x7f,0x00,0x06,0xff,
 0xc1,0x00,0xe7,0x83,0x87,0x00,0x73,0x00,0x7e,0x20,0x1f,0x80,0x00,0x80,0x03,
 0x00,0x00,0xc0,0x01,0x00,0x00,0xe0,0x00,0x20,0x00,0xd8,0x00,0x00,0x00,0x4c,
 0x04,0x04,0x00,0x66,0x40,0x00,0x00,0x33,0x00,0x00,0x00,0x1b,0x00,0x00,0x00,
 0x0f,0x00,0x00,0x00,0x07,0x00,0x00,0x00};
