#define aux.t.bm_width 16
#define aux.t.bm_height 16
#define aux.t.bm_x_hot 0
#define aux.t.bm_y_hot 0
static unsigned char aux.t.bm_bits[] = {
   0xff, 0x1f, 0xff, 0x0f, 0xff, 0x0f, 0x67, 0x0c, 0xff, 0x0f, 0x87, 0x0c,
   0xff, 0x0f, 0x07, 0x00, 0x27, 0x55, 0x57, 0x55, 0x77, 0x25, 0x57, 0x55,
   0x57, 0x52, 0x07, 0x00, 0xff, 0x1f, 0x01, 0x00};
