#define fig.t.bm_width 16
#define fig.t.bm_height 16
#define fig.t.bm_x_hot 0
#define fig.t.bm_y_hot 0
static unsigned char fig.t.bm_bits[] = {
   0xff, 0x1f, 0xff, 0x0f, 0xf3, 0x0f, 0xc1, 0x0f, 0x81, 0x0f, 0x03, 0x0f,
   0xff, 0x0f, 0x07, 0x00, 0x77, 0x27, 0x17, 0x52, 0x37, 0x12, 0x17, 0x52,
   0x17, 0x67, 0x07, 0x00, 0xff, 0x1f, 0x01, 0x00};
