#define Ftp.t_m.bm_width 16
#define Ftp.t_m.bm_height 16
static unsigned char Ftp.t_m.bm_bits[] = {
   0xe0, 0xff, 0xc0, 0xff, 0x80, 0xff, 0x00, 0xff, 0x00, 0xff, 0x00, 0xff,
   0x00, 0xff, 0x00, 0xce, 0x00, 0xc4, 0x00, 0xc0, 0x07, 0xc0, 0x07, 0xc0,
   0x0f, 0xc0, 0x1f, 0x80, 0x3f, 0x00, 0x7f, 0x00};
