#define Ftp.s_m.bm_width 24
#define Ftp.s_m.bm_height 24
static unsigned char Ftp.s_m.bm_bits[] = {
   0x00, 0xff, 0xff, 0x00, 0xfe, 0xff, 0x00, 0xfc, 0xff, 0x00, 0xf8, 0xff,
   0x00, 0xf0, 0xff, 0x00, 0xf0, 0xff, 0x00, 0xf0, 0xff, 0x00, 0xf0, 0xff,
   0x00, 0xf0, 0xff, 0x00, 0xf0, 0xff, 0x00, 0xf0, 0xff, 0x00, 0xe0, 0xe3,
   0x00, 0xc0, 0xe1, 0x00, 0x80, 0xe1, 0x00, 0x00, 0xe0, 0x1f, 0x00, 0xe0,
   0x1f, 0x00, 0xe0, 0x1f, 0x00, 0xe0, 0x3f, 0x00, 0xe0, 0x7f, 0x00, 0xe0,
   0xff, 0x00, 0x80, 0xff, 0x01, 0x00, 0xff, 0x03, 0x00, 0xff, 0x07, 0x00};
