#define Html.t_m.bm_width 16
#define Html.t_m.bm_height 16
#define Html.t_m.bm_x_hot 0
#define Html.t_m.bm_y_hot 0
static char Html.t_m.bm_bits[] = {
   0xff, 0x1f, 0xff, 0x1f, 0xff, 0x1f, 0xff, 0x1f, 0xff, 0x1f, 0xff, 0x1f,
   0xff, 0x1f, 0xff, 0x1f, 0xff, 0x1f, 0xff, 0x1f, 0xff, 0x1f, 0xff, 0x1f,
   0xff, 0x1f, 0xff, 0x1f, 0xff, 0x1f, 0xff, 0x1f};
