#define Html.t.bm_width 16
#define Html.t.bm_height 16
#define Html.t.bm_x_hot 0
#define Html.t.bm_y_hot 0
static unsigned char Html.t.bm_bits[] = {
   0xaa, 0x0a, 0xff, 0x0f, 0x56, 0x0d, 0x1b, 0x0b, 0x56, 0x0d, 0xff, 0x0f,
   0xfe, 0x0f, 0x57, 0x0c, 0xfe, 0x0f, 0xa7, 0x0c, 0xfe, 0x0f, 0xd7, 0x0f,
   0xfe, 0x0f, 0xff, 0x0f, 0xfe, 0x0f, 0x01, 0x00};
