#define latexlog.t_m.bm_width 16
#define latexlog.t_m.bm_height 16
#define latexlog.t_m.bm_x_hot 0
#define latexlog.t_m.bm_y_hot 0
static unsigned char latexlog.t_m.bm_bits[] = {
   0x00, 0xe0, 0x00, 0xe0, 0x00, 0xe0, 0x00, 0xe0, 0x00, 0xe0, 0x00, 0xe0,
   0x00, 0xe0, 0x00, 0x00, 0x00, 0x00, 0x00, 0x00, 0x00, 0x00, 0x00, 0x00,
   0x00, 0x00, 0x00, 0x00, 0x00, 0xe0, 0x00, 0xe0};
