#define latexlog.t.bm_width 16
#define latexlog.t.bm_height 16
#define latexlog.t.bm_x_hot 0
#define latexlog.t.bm_y_hot 0
static unsigned char latexlog.t.bm_bits[] = {
   0xff, 0x1f, 0xff, 0x0f, 0xff, 0x0f, 0x67, 0x0c, 0xff, 0x0f, 0x87, 0x0c,
   0xff, 0x0f, 0x07, 0x00, 0x17, 0x22, 0x17, 0x55, 0x17, 0x15, 0x17, 0x55,
   0x77, 0x62, 0x07, 0x00, 0xff, 0x1f, 0x01, 0x00};
