#define tex.t.bm_width 16
#define tex.t.bm_height 16
#define tex.t.bm_x_hot 0
#define tex.t.bm_y_hot 0
static unsigned char tex.t.bm_bits[] = {
   0xaa, 0x0a, 0xff, 0x0f, 0xfe, 0x0f, 0x67, 0x0c, 0xfe, 0x0f, 0x87, 0x0c,
   0xfe, 0x0f, 0x07, 0x00, 0x76, 0x57, 0x27, 0x51, 0x26, 0x23, 0x27, 0x51,
   0x26, 0x57, 0x07, 0x00, 0xfe, 0x0f, 0x01, 0x00};
