#define wabi.t_m.bm_width 16
#define wabi.t_m.bm_height 16
#define wabi.t_m.bm_x_hot 0
#define wabi.t_m.bm_y_hot 0
static unsigned char wabi.t_m.bm_bits[] = {
   0x00, 0x1c, 0x80, 0x1f, 0xf0, 0x1f, 0xfc, 0x1f, 0xfc, 0x1f, 0xfc, 0x1f,
   0xfc, 0x1f, 0xfc, 0x1f, 0xfc, 0x1f, 0xfc, 0x1f, 0xfc, 0x1f, 0xfc, 0x1f,
   0xfc, 0x07, 0xfc, 0x00, 0x1c, 0x00, 0x00, 0x00};
