#define wabi.t.bm_width 16
#define wabi.t.bm_height 16
#define wabi.t.bm_x_hot 0
#define wabi.t.bm_y_hot 0
static unsigned char wabi.t.bm_bits[] = {
   0x00, 0x1c, 0x80, 0x17, 0xf0, 0x10, 0xbc, 0x10, 0x84, 0x10, 0x84, 0x1c,
   0x84, 0x17, 0xc4, 0x11, 0xf4, 0x10, 0x9c, 0x10, 0x84, 0x10, 0x84, 0x1e,
   0x84, 0x07, 0xf4, 0x00, 0x1c, 0x00, 0x00, 0x00};
