#define wabi_appgroup.t.bm_width 16
#define wabi_appgroup.t.bm_height 16
#define wabi_appgroup.t.bm_x_hot 0
#define wabi_appgroup.t.bm_y_hot 0
static unsigned char wabi_appgroup.t.bm_bits[] = {
   0x00, 0x40, 0xfc, 0x7f, 0xf0, 0x4f, 0x00, 0x80, 0x00, 0x80, 0x80, 0x87,
   0xf0, 0x84, 0x90, 0x84, 0x90, 0x87, 0xf0, 0x84, 0x90, 0x84, 0x90, 0x87,
   0xf0, 0x81, 0x00, 0x80, 0x00, 0x80, 0xff, 0xff};
