#define xdvi.s_m.bm_width 24
#define xdvi.s_m.bm_height 24
static unsigned char xdvi.s_m.bm_bits[] = {
   0xff, 0xff, 0xff, 0x69, 0xcc, 0xc2, 0x73, 0xca, 0xe6, 0x63, 0x1a, 0xe7,
   0x4d, 0x3c, 0xc3, 0xff, 0xff, 0xff, 0xff, 0xff, 0xff, 0xff, 0x3f, 0xfe,
   0xff, 0x0f, 0xf8, 0xff, 0x0f, 0xf8, 0x03, 0x00, 0xe0, 0x03, 0x00, 0xe0,
   0x03, 0x00, 0xe0, 0x03, 0x00, 0xe0, 0x03, 0x00, 0xe0, 0x03, 0x00, 0xe0,
   0x03, 0x00, 0xe0, 0x03, 0x00, 0xe0, 0x03, 0x00, 0xe0, 0x03, 0x00, 0xe0,
   0x03, 0x00, 0xe0, 0x03, 0x00, 0xe0, 0x03, 0x00, 0xe0, 0x03, 0x00, 0xe0};
