#define xdvi.s.bm_width 24
#define xdvi.s.bm_height 24
static unsigned char xdvi.s.bm_bits[] = {
   0x00, 0x00, 0x00, 0x00, 0x00, 0x00, 0x00, 0x00, 0x00, 0x00, 0x00, 0x00,
   0x00, 0x00, 0x00, 0x00, 0x00, 0x00, 0x00, 0x00, 0x00, 0x00, 0x00, 0x00,
   0x00, 0x00, 0x00, 0x00, 0xc0, 0x01, 0xfc, 0x67, 0x12, 0xb4, 0xa5, 0x12,
   0x24, 0x67, 0x12, 0xfc, 0xcf, 0x19, 0xb4, 0x06, 0x18, 0x94, 0x23, 0x1e,
   0xfc, 0xf1, 0x1f, 0xd4, 0x28, 0x19, 0x54, 0xec, 0x1d, 0x5c, 0xfe, 0x1f,
   0xec, 0x25, 0x1d, 0xe4, 0x6e, 0x19, 0xfc, 0xff, 0x1f, 0xfc, 0xff, 0x1f};
