#define XFaces.t_m.bm_width 16
#define XFaces.t_m.bm_height 16
#define XFaces.t_m.bm_x_hot 0
#define XFaces.t_m.bm_y_hot 0
static unsigned char XFaces.t_m.bm_bits[] = {
   0xff, 0xf0, 0x1a, 0xf0, 0x0f, 0x80, 0x1f, 0x80, 0x0f, 0xe0, 0x07, 0xe0,
   0x06, 0xe0, 0x07, 0xc0, 0x1f, 0xc0, 0x1f, 0xc0, 0x0f, 0xc0, 0x1f, 0xc0,
   0x07, 0x80, 0x01, 0x00, 0x01, 0x00, 0x00, 0x00};
