#define XFaces.t.bm_width 16
#define XFaces.t.bm_height 16
#define XFaces.t.bm_x_hot 0
#define XFaces.t.bm_y_hot 0
static unsigned char XFaces.t.bm_bits[] = {
   0x00, 0x00, 0x00, 0x00, 0x00, 0x00, 0x00, 0x00, 0x00, 0x00, 0x00, 0x00,
   0x00, 0x16, 0x00, 0x04, 0x00, 0x06, 0xc0, 0x01, 0x70, 0x00, 0x00, 0x10,
   0x00, 0x02, 0x40, 0x00, 0xc0, 0x00, 0x00, 0x10};
