#define Xfig.t.bm_width 16
#define Xfig.t.bm_height 16
#define Xfig.t.bm_x_hot 0
#define Xfig.t.bm_y_hot 0
static unsigned char Xfig.t.bm_bits[] = {
   0xff, 0xff, 0xff, 0xf3, 0xff, 0xed, 0xfd, 0x8d, 0x21, 0x7e, 0x0f, 0x77,
   0xcf, 0x5f, 0x2f, 0x9e, 0x67, 0xbd, 0x43, 0xab, 0x81, 0x79, 0x01, 0x7a,
   0x80, 0xbd, 0x80, 0xbb, 0xc1, 0xd7, 0xe3, 0xef};
