#define xv.s_m.bm_width 24
#define xv.s_m.bm_height 24
static unsigned char xv.s_m.bm_bits[] = {
   0xff, 0xff, 0xff, 0xff, 0xff, 0xff, 0xff, 0xff, 0xff, 0xff, 0xff, 0xff,
   0xff, 0xff, 0xff, 0xff, 0xff, 0xff, 0xff, 0xff, 0xdc, 0x3f, 0x67, 0xc4,
   0x3f, 0x73, 0xc6, 0x3f, 0x39, 0xc6, 0x3f, 0x3c, 0xe2, 0x3f, 0x1e, 0x87,
   0x3f, 0x8f, 0x83, 0x3f, 0x87, 0xfb, 0x1f, 0x87, 0xf9, 0x0f, 0xc3, 0xfd,
   0x27, 0x48, 0xfc, 0x33, 0x0c, 0xfe, 0x39, 0x0e, 0xff, 0xff, 0xdf, 0xff,
   0xff, 0xff, 0xff, 0xff, 0xff, 0xff, 0xff, 0xff, 0xff, 0xff, 0xff, 0xff};
