#define Xv.t_m.bm_width 16
#define Xv.t_m.bm_height 16
#define Xv.t_m.bm_x_hot 0
#define Xv.t_m.bm_y_hot 0
static unsigned char Xv.t_m.bm_bits[] = {
   0xff, 0xff, 0xff, 0xff, 0xff, 0xff, 0xff, 0xff, 0xff, 0xb7, 0x6f, 0x93,
   0x2f, 0x93, 0x8f, 0x49, 0xcf, 0x8c, 0x67, 0xec, 0x67, 0xf4, 0x8b, 0xf0,
   0xcd, 0xf8, 0xff, 0xff, 0xff, 0xff, 0xff, 0xff};
